<?xml version="1.0" encoding="UTF-8"?>
<!DOCTYPE svg PUBLIC "-//W3C//DTD SVG 1.1//EN" "http://www.w3.org/Graphics/SVG/1.1/DTD/svg11.dtd">
<svg xmlns="http://www.w3.org/2000/svg" version="1.1" width="65px" height="104px" style="shape-rendering:geometricPrecision; text-rendering:geometricPrecision; image-rendering:optimizeQuality; fill-rule:evenodd; clip-rule:evenodd" xmlns:xlink="http://www.w3.org/1999/xlink">
<g><path style="opacity:0.063" fill="#fefffe" d="M 15.5,-0.5 C 15.8333,-0.5 16.1667,-0.5 16.5,-0.5C 16.5,-0.166667 16.5,0.166667 16.5,0.5C 16.1667,0.166667 15.8333,-0.166667 15.5,-0.5 Z"/></g>
<g><path style="opacity:0.687" fill="#fdfdfe" d="M 16.5,0.5 C 18.6634,3.49324 20.33,6.82658 21.5,10.5C 25.1224,11.3253 28.789,11.8253 32.5,12C 29.8333,14 27.1667,16 24.5,18C 26.2768,21.2093 27.9435,24.376 29.5,27.5C 30.2635,31.1368 31.5968,34.4701 33.5,37.5C 34.1534,38.8068 34.8201,40.1401 35.5,41.5C 34.5754,42.5624 33.5754,42.5624 32.5,41.5C 30.7865,38.7872 28.4532,36.7872 25.5,35.5C 22.0958,31.9499 18.4291,28.6166 14.5,25.5C 11.7544,27.6229 8.92103,29.6229 6,31.5C 6.57227,28.0395 7.4056,24.5395 8.5,21C 5.93832,18.3543 3.27165,15.6877 0.5,13C 3.80078,13.8235 6.80078,15.4902 9.5,18C 10.4533,19.9552 11.7866,21.6218 13.5,23C 17.3207,24.1609 20.8207,25.9943 24,28.5C 23.951,25.6554 23.451,22.8221 22.5,20C 23.3344,16.6091 22.3344,13.6091 19.5,11C 18.1889,7.56933 17.1889,4.06933 16.5,0.5 Z"/></g>
<g><path style="opacity:0.937" fill="#8897c9" d="M 64.5,100.5 C 64.5,101.5 64.5,102.5 64.5,103.5C 64.1667,103.5 63.8333,103.5 63.5,103.5C 54.6235,80.076 45.4569,56.7427 36,33.5C 34.9054,34.6934 34.072,36.0267 33.5,37.5C 31.5968,34.4701 30.2635,31.1368 29.5,27.5C 30.9751,20.9076 33.1417,14.5743 36,8.5C 45.2374,39.3708 54.7374,70.0375 64.5,100.5 Z"/></g>
<g><path style="opacity:0.904" fill="#8897c8" d="M 25.5,35.5 C 28.4532,36.7872 30.7865,38.7872 32.5,41.5C 23.1667,61.5 13.8333,81.5 4.5,101.5C 11.5,79.5 18.5,57.5 25.5,35.5 Z"/></g>
<g><path style="opacity:0.063" fill="#819ccc" d="M 4.5,101.5 C 4.5,102.167 4.5,102.833 4.5,103.5C 4.16667,103.5 3.83333,103.5 3.5,103.5C 3.32842,102.508 3.66175,101.842 4.5,101.5 Z"/></g>
</svg>
